<?xml version="1.0" encoding="utf-8"?>
<!-- Generator: Adobe Illustrator 20.1.0, SVG Export Plug-In . SVG Version: 6.00 Build 0)  -->
<svg version="1.1" id="Layer_1" xmlns="http://www.w3.org/2000/svg" xmlns:xlink="http://www.w3.org/1999/xlink" x="0px" y="0px"
	 viewBox="0 0 1224 792" style="enable-background:new 0 0 1224 792;" xml:space="preserve">
<style type="text/css">
	.st0{fill:#F8F8F8;}
	.st1{font-family:'Raleway-ExtraBold';}
	.st2{font-size:43px;}
</style>
<g>
	<path class="st0" d="M425.3,408.6V301.4H450v107.2H425.3z"/>
	<path class="st0" d="M468.8,347.3v-45.9h19.3l50,63v-63h24.8v107.2H543l-49.4-61.3 M468.8,347.3 M468.8,408.6 M493.6,347.3v61.3
		h-24.8"/>
	<path class="st0" d="M581.7,408.6V301.4h40c8.9,0,16.6,1.4,23.3,4.2c6.6,2.8,12.2,6.6,16.7,11.5c4.5,4.8,7.9,10.5,10.1,17
		c2.3,6.5,3.4,13.4,3.4,20.8c0,8.2-1.3,15.5-3.8,22.1c-2.5,6.6-6.1,12.2-10.8,16.9c-4.7,4.7-10.3,8.3-16.9,10.9
		c-6.6,2.6-13.9,3.8-22,3.8H581.7z M650,354.8c0-4.7-0.6-9-1.9-12.9c-1.3-3.9-3.1-7.2-5.5-10c-2.4-2.8-5.4-5-8.9-6.5
		c-3.5-1.5-7.5-2.3-11.9-2.3h-15.2v63.7h15.2c4.5,0,8.6-0.8,12.1-2.4c3.5-1.6,6.5-3.8,8.8-6.7c2.4-2.9,4.2-6.2,5.4-10.1
		C649.4,363.7,650,359.5,650,354.8z"/>
	<path class="st0" d="M669.2,301.4h26.9l23.1,49.2 M669.2,301.4 M706.8,371.7 M719.2,350.6l23.4-49.2h27L731.4,372v36.5h-24.6v-36.8
		"/>
</g>
<text transform="matrix(1 0 0 1 400.1523 451.8374)" class="st0 st1 st2">Parks &amp; Recreation</text>
</svg>
